<?xml version="1.0" encoding="UTF-8" standalone="no"?>
<svg
   viewBox="0 0 255.498 255.49799"
   xml:space="preserve"
   version="1.1"
   id="svg36"
   sodipodi:docname="git-for-windows-helper.svg"
   inkscape:version="1.2 (dc2aedaf03, 2022-05-15)"
   width="255.498"
   height="255.498"
   inkscape:export-filename="git-for-windows-helper.png"
   inkscape:export-xdpi="96"
   inkscape:export-ydpi="96"
   xmlns:inkscape="http://www.inkscape.org/namespaces/inkscape"
   xmlns:sodipodi="http://sodipodi.sourceforge.net/DTD/sodipodi-0.dtd"
   xmlns="http://www.w3.org/2000/svg"
   xmlns:svg="http://www.w3.org/2000/svg"><sodipodi:namedview
     id="namedview38"
     pagecolor="#ffffff"
     bordercolor="#000000"
     borderopacity="0.25"
     inkscape:showpageshadow="2"
     inkscape:pageopacity="0.0"
     inkscape:pagecheckerboard="0"
     inkscape:deskcolor="#d1d1d1"
     showgrid="false"
     inkscape:zoom="2.3995694"
     inkscape:cx="62.302844"
     inkscape:cy="114.81226"
     inkscape:window-width="1920"
     inkscape:window-height="991"
     inkscape:window-x="-9"
     inkscape:window-y="-9"
     inkscape:window-maximized="1"
     inkscape:current-layer="svg36" /><defs
     id="defs8"><clipPath
       id="clipPath18"><path
         d="M 0,0 H 2183.73 V 912 H 0 Z"
         id="path2" /></clipPath><clipPath
       id="clipPath3018"><path
         d="M 230.8919,51.9769 181.1496,2.2382 c -2.8623,-2.8648 -7.5083,-2.8648 -10.3745,0 l -10.3286,10.3295 13.1021,13.1026 c 3.0459,-1.0284 6.5371,-0.3389 8.9639,2.0884 2.4394,2.4424 3.124,5.9634 2.0698,9.0195 l 12.628,12.6275 c 3.0551,-1.0528 6.58,-0.3726 9.0195,2.0713 3.4106,3.4096 3.4106,8.9345 0,12.3453 -3.4106,3.4108 -8.936,3.4116 -12.3486,0 -2.5645,-2.5665 -3.1988,-6.3345 -1.8999,-9.4942 l -11.7769,-11.7773 -0.001,30.9911 c 0.8315,0.4116 1.6163,0.961 2.3091,1.6509 3.4096,3.4093 3.4096,8.9331 0,12.3478 -3.4096,3.4147 -8.938,3.4091 -12.3453,0 -3.4073,-3.4091 -3.4101,-8.9385 0,-12.3478 0.8428,-0.8413 1.8179,-1.478 2.8584,-1.9047 V 42.0094 c -1.0405,-0.4254 -2.0141,-1.0576 -2.8584,-1.9049 -2.583,-2.581 -3.2051,-6.372 -1.8804,-9.5439 l -12.9155,-12.918 -34.1065,34.1045 c -2.8657,2.8671 -2.8657,7.5131 0,10.3784 l 49.7417,49.7388 c 2.8638,2.8647 7.5083,2.8647 10.376,0 L 230.8918,62.356 c 2.8647,-2.8663 2.8647,-7.5136 0,-10.3789"
         id="path5" /></clipPath></defs><g
     id="g7742"
     transform="translate(22.749001)"><g
       transform="matrix(1.25,0,0,-1.25,-45.822435,196.90077)"
       id="g14"><g
         transform="scale(0.1)"
         id="g12"><g
           clip-path="url(#clipPath18)"
           id="g10" /></g></g><path
       inkscape:connector-curvature="0"
       id="path3783"
       d=""
       style="fill:#000000;stroke-width:5;stroke-miterlimit:4;stroke-dasharray:none" /><path
       sodipodi:nodetypes="cscscscc"
       inkscape:connector-curvature="0"
       id="path4688"
       d="m 141.36261,84.631499 c 34.94798,9.970472 44.78622,-18.908058 48.17145,-17.030693 4.34877,2.41172 -1.40096,20.726399 -1.40096,20.726399 0,0 3.65723,-5.12212 4.22534,-3.130318 4.30308,15.086883 -2.40897,18.834573 -6.4716,26.192673 0,0 2.36888,-0.22759 2.84204,0.61155 3.48219,6.17559 -15.67373,18.79983 -29.94139,34.24945 z"
       style="fill:#000000;fill-opacity:1;stroke:#000000;stroke-width:5;stroke-linecap:butt;stroke-linejoin:round;stroke-miterlimit:4;stroke-dasharray:none;stroke-opacity:1" /><path
       style="fill:#000000;fill-opacity:1;stroke:#000000;stroke-width:5;stroke-linecap:butt;stroke-linejoin:round;stroke-miterlimit:4;stroke-dasharray:none;stroke-opacity:1"
       d="m 72.335305,84.631499 c -44.89005,9.534938 -45.15709,-18.671051 -48.17145,-17.030693 -4.36813,2.377058 1.40096,20.726399 1.40096,20.726399 0,0 -3.65723,-5.12212 -4.22534,-3.130318 -4.30308,15.086883 2.40897,18.834573 6.4716,26.192673 0,0 -2.36888,-0.22759 -2.84204,0.61155 -3.48219,6.17559 15.67373,18.79983 29.94139,34.24945 z"
       id="path4690"
       inkscape:connector-curvature="0"
       sodipodi:nodetypes="cscscscc" /><g
       transform="matrix(1.8433212,0,0,1.8433212,-0.62290432,92.297387)"
       id="g26"><g
         clip-path="url(#clipPath3018)"
         transform="translate(-118.7776,-25.4764)"
         id="g24"><path
           d="m 230.4355,-10.8129 -49.7422,-49.7388 c -2.8622,-2.8647 -7.5083,-2.8647 -10.3745,0 l -49.5102,49.5088 c -2.8657,2.8671 -2.8657,7.5131 0,10.3784 l 49.7417,49.7388 c 2.8638,2.8647 7.5083,2.8647 10.376,0 L 230.4356,-0.434 c 2.8647,-2.8662 2.8647,-7.5136 0,-10.3789"
           fill="#ff8080"
           id="path16" /><path
           d="M 293.3929,51.9276 243.6506,2.1888 c -2.8622,-2.8647 -7.5083,-2.8647 -10.3745,0 l -49.5102,49.5088 c -2.8657,2.8671 -2.8657,7.5131 0,10.3784 l 49.7417,49.7388 c 2.8638,2.8648 7.5083,2.8648 10.376,0 l 49.5093,-49.5083 c 2.8647,-2.8662 2.8647,-7.5136 0,-10.3789"
           fill="#8dd35f"
           id="path18" /><path
           d="M 167.4356,51.5209 117.6934,1.7821 c -2.8623,-2.8647 -7.5083,-2.8647 -10.3745,0 L 57.8087,51.2909 c -2.8657,2.8671 -2.8657,7.5131 0,10.3784 l 49.7417,49.7388 c 2.8638,2.8647 7.5083,2.8647 10.376,0 l 49.5092,-49.5083 c 2.8647,-2.8662 2.8647,-7.5136 0,-10.3789"
           fill="#80b3ff"
           id="path20" /><path
           d="M 230.1294,114.1172 180.3872,64.3784 c -2.8622,-2.8647 -7.5083,-2.8647 -10.3745,0 l -49.5102,49.5088 c -2.8657,2.8671 -2.8657,7.5131 0,10.3784 l 49.7417,49.7388 c 2.8638,2.8647 7.5083,2.8647 10.376,0 l 49.5093,-49.5083 c 2.8647,-2.8663 2.8647,-7.5136 0,-10.3789"
           fill="#ffe680"
           id="path22" /></g></g><g
       transform="matrix(0.8203125,0,0,0.81359692,148.0664,64.446912)"
       id="g4686"
       style="stroke-width:6.12034;stroke-miterlimit:4;stroke-dasharray:none"><path
         style="fill:#a5a5a5;fill-opacity:1;stroke:#000000;stroke-width:6.12034;stroke-linecap:butt;stroke-linejoin:round;stroke-miterlimit:4;stroke-dasharray:none;stroke-opacity:1"
         d="m -125,26 c 47.621765,-7.115684 95.940701,-7.25966 145,0 L 0,6 -5,-14 -10,-49 c -43.119878,-35.839586 -42.556997,-36.564381 -85,0 l -5,35 -5,20 z"
         id="path4670"
         inkscape:connector-curvature="0"
         sodipodi:nodetypes="ccccccccc" /><path
         style="fill:none;stroke:#000000;stroke-width:6.12034;stroke-linecap:butt;stroke-linejoin:miter;stroke-miterlimit:4;stroke-dasharray:none;stroke-opacity:1"
         d="m -62.57747,-64.373232 c 1.74042,17.148571 -5.08465,26.390532 -12.52014,35.069033"
         id="path4672"
         inkscape:connector-curvature="0"
         sodipodi:nodetypes="cc" /><path
         sodipodi:nodetypes="cc"
         inkscape:connector-curvature="0"
         id="path4674"
         d="m -40.23145,-64.373232 c -1.74042,17.148571 5.08465,26.390532 12.52014,35.069033"
         style="fill:none;stroke:#000000;stroke-width:6.12034;stroke-linecap:butt;stroke-linejoin:miter;stroke-miterlimit:4;stroke-dasharray:none;stroke-opacity:1" /><path
         style="fill:#ffffff;fill-opacity:1;stroke:#000000;stroke-width:6.12034;stroke-linecap:butt;stroke-linejoin:miter;stroke-miterlimit:4;stroke-dasharray:none;stroke-opacity:1"
         d="m -100,-14 c 31.33739,-15.728051 61.138541,-15.607054 95,0 L 0,6 C -35.994483,-5.7319681 -70.1828,-3.807408 -105,6 Z"
         id="path4680"
         inkscape:connector-curvature="0"
         sodipodi:nodetypes="ccccc" /></g></g></svg>
